<svg width="32" height="32" viewBox="0 0 32 32" xmlns="http://www.w3.org/2000/svg" shape-rendering="crispEdges">
  <rect width="32" height="32" rx="6" fill="#050508"/>
  <rect x="1.5" y="1.5" width="29" height="29" rx="5" fill="none" stroke="#1f1f35" stroke-width="1.5"/>
  <!-- pixel invader (8 cols x 6 rows of 3px), centered -->
  <g fill="#9dff5d" transform="translate(4,6)">
    <rect x="6"  y="0"  width="3" height="3"/>
    <rect x="15" y="0"  width="3" height="3"/>
    <rect x="9"  y="3"  width="3" height="3"/>
    <rect x="12" y="3"  width="3" height="3"/>
    <rect x="3"  y="6"  width="18" height="3"/>
    <rect x="0"  y="9"  width="3" height="3"/>
    <rect x="6"  y="9"  width="12" height="3"/>
    <rect x="21" y="9"  width="3" height="3"/>
    <rect x="0"  y="12" width="3" height="3"/>
    <rect x="6"  y="12" width="3" height="3"/>
    <rect x="15" y="12" width="3" height="3"/>
    <rect x="21" y="12" width="3" height="3"/>
    <rect x="6"  y="15" width="3" height="3"/>
    <rect x="15" y="15" width="3" height="3"/>
  </g>
</svg>
